<svg width="13" height="12" viewBox="0 0 13 12" fill="none" xmlns="http://www.w3.org/2000/svg">
<path d="M5.64165 6.4103L4.79174 5.57504C4.68428 5.46758 4.54986 5.41385 4.38847 5.41385C4.22709 5.41385 4.08797 5.47247 3.97114 5.5897C3.86368 5.69716 3.80995 5.83393 3.80995 6C3.80995 6.16607 3.86368 6.30284 3.97114 6.4103L5.23135 7.67052C5.34858 7.78774 5.48534 7.84636 5.64165 7.84636C5.79796 7.84636 5.93472 7.78774 6.05195 7.67052L8.54307 5.1794C8.6603 5.06217 8.71637 4.9254 8.71129 4.76909C8.70621 4.61279 8.65014 4.47602 8.54307 4.35879C8.42584 4.24156 8.28653 4.1806 8.12515 4.17592C7.96376 4.17123 7.82465 4.2273 7.70781 4.34414L5.64165 6.4103ZM4.00044 11.7149L3.15053 10.2789L1.53863 9.92718C1.3921 9.89787 1.27487 9.82206 1.18694 9.69975C1.09902 9.57744 1.06483 9.44321 1.08437 9.29707L1.24556 7.64121L0.146536 6.38099C0.0488454 6.27353 0 6.14654 0 6C0 5.85346 0.0488454 5.72647 0.146536 5.61901L1.24556 4.35879L1.08437 2.70293C1.06483 2.5564 1.09902 2.42197 1.18694 2.29966C1.27487 2.17735 1.3921 2.10174 1.53863 2.07283L3.15053 1.72114L4.00044 0.285082C4.0786 0.158084 4.18606 0.0725066 4.32282 0.0283503C4.45959 -0.0158059 4.59636 -0.00838144 4.73312 0.0506239L6.2571 0.695384L7.78108 0.0506239C7.91785 -0.00799068 8.05462 -0.0154152 8.19138 0.0283503C8.32815 0.0721159 8.43561 0.157693 8.51376 0.285082L9.36367 1.72114L10.9756 2.07283C11.1221 2.10213 11.2393 2.17794 11.3273 2.30025C11.4152 2.42256 11.4494 2.55679 11.4298 2.70293L11.2686 4.35879L12.3677 5.61901C12.4654 5.72647 12.5142 5.85346 12.5142 6C12.5142 6.14654 12.4654 6.27353 12.3677 6.38099L11.2686 7.64121L11.4298 9.29707C11.4494 9.4436 11.4152 9.57803 11.3273 9.70034C11.2393 9.82265 11.1221 9.89826 10.9756 9.92718L9.36367 10.2789L8.51376 11.7149C8.43561 11.8419 8.32815 11.9275 8.19138 11.9717C8.05462 12.0158 7.91785 12.0084 7.78108 11.9494L6.2571 11.3046L4.73312 11.9494C4.59636 12.008 4.45959 12.0154 4.32282 11.9717C4.18606 11.9279 4.0786 11.8423 4.00044 11.7149Z" fill="white"/>
</svg>
