<svg width="25" height="23" viewBox="0 0 25 23" fill="none" xmlns="http://www.w3.org/2000/svg">
<path d="M17.75 4L17.6617 3.73509C17.1172 2.10172 15.5887 1 13.867 1H11.633C9.91131 1 8.38276 2.10172 7.8383 3.73509L7.75 4H5.75C3.54086 4 1.75 5.79086 1.75 8V18C1.75 20.2091 3.54086 22 5.75 22H19.75C21.9591 22 23.75 20.2091 23.75 18V8C23.75 5.79086 21.9591 4 19.75 4H17.75Z" stroke="white" stroke-width="2"/>
<path d="M17.75 13C17.75 15.7614 15.5114 18 12.75 18C9.98858 18 7.75 15.7614 7.75 13C7.75 10.2386 9.98858 8 12.75 8C15.5114 8 17.75 10.2386 17.75 13Z" stroke="white" stroke-width="2"/>
</svg>
