<svg width="29" height="30" viewBox="0 0 29 30" fill="none" xmlns="http://www.w3.org/2000/svg">
<g clip-path="url(#clip0_302_1224)">
<path fill-rule="evenodd" clip-rule="evenodd" d="M14.3445 27.2647C7.79842 27.2647 2.39075 21.857 2.39075 15.3109C2.39075 8.76473 7.78924 3.35706 14.3354 3.35706C20.8815 3.35706 26.2983 8.76473 26.2983 15.3109C26.2983 21.857 20.8907 27.2647 14.3445 27.2647ZM12.8756 21.3153C13.2153 21.3153 13.5091 21.1593 13.7294 20.8196L19.8991 11.1519C20.0369 10.9499 20.1562 10.702 20.1562 10.4816C20.1562 9.99503 19.7247 9.69206 19.2748 9.69206C19.0086 9.69206 18.7423 9.84814 18.5403 10.1603L12.8297 19.2404L9.79075 15.4302C9.55204 15.1273 9.30415 15.0171 9.01036 15.0171C8.56048 15.0171 8.18406 15.3752 8.18406 15.8618C8.18406 16.0913 8.27587 16.3392 8.43195 16.532L11.9759 20.8287C12.2605 21.1776 12.5359 21.3153 12.8756 21.3153Z" fill="#0A7AFF"/>
</g>
<defs>
<clipPath id="clip0_302_1224">
<rect width="23.9076" height="23.9076" fill="white" transform="translate(2.39075 3.35706)"/>
</clipPath>
</defs>
</svg>
