<svg width="22" height="23" viewBox="0 0 22 23" fill="none" xmlns="http://www.w3.org/2000/svg">
<path fill-rule="evenodd" clip-rule="evenodd" d="M21.4913 21.49L20.2742 16.94C20.2043 16.685 20.2393 16.41 20.359 16.17C21.4214 14.035 21.7756 11.485 21.1222 8.825C20.2343 5.225 17.431 2.335 13.8495 1.38C12.8718 1.125 11.9091 1 10.9763 1C4.28231 1 -0.945226 7.295 0.860469 14.3C1.69847 17.54 5.15024 20.895 8.3975 21.685C9.2754 21.9 10.1383 22 10.9763 22C12.7771 22 14.463 21.535 15.9445 20.735C16.1091 20.645 16.2937 20.595 16.4732 20.595C16.563 20.595 16.6528 20.605 16.7426 20.63L21.1621 21.815C21.187 21.82 21.2119 21.825 21.2319 21.825C21.4015 21.825 21.5362 21.665 21.4913 21.49ZM18.8775 17.315L19.5659 19.89L17.1167 19.235C16.9072 19.18 16.6927 19.15 16.4732 19.15C16.0542 19.15 15.6303 19.26 15.2512 19.465C13.9193 20.185 12.4828 20.55 10.9763 20.55C10.2331 20.55 9.47992 20.455 8.73669 20.275C5.98824 19.605 2.96046 16.645 2.26213 13.935C1.53386 11.105 2.1075 8.2 3.83338 5.965C5.55926 3.73 8.16306 2.45 10.9763 2.45C11.8044 2.45 12.6474 2.56 13.4804 2.785C16.558 3.605 18.9473 6.055 19.7205 9.175C20.2642 11.375 20.0397 13.57 19.0671 15.525C18.7877 16.085 18.7179 16.72 18.8775 17.315Z" fill="white" stroke="white"/>
</svg>
