<svg width="40" height="40" viewBox="0 0 40 40" fill="none" xmlns="http://www.w3.org/2000/svg">
<rect width="40" height="40" rx="20" fill="black" fill-opacity="0.6"/>
<path d="M13.2938 13.2938C13.3867 13.2007 13.497 13.1268 13.6185 13.0764C13.74 13.0259 13.8703 13 14.0018 13C14.1333 13 14.2636 13.0259 14.3851 13.0764C14.5065 13.1268 14.6169 13.2007 14.7098 13.2938L20.0018 18.5878L25.2938 13.2938C25.3868 13.2008 25.4971 13.1271 25.6186 13.0767C25.7401 13.0264 25.8703 13.0005 26.0018 13.0005C26.1333 13.0005 26.2635 13.0264 26.385 13.0767C26.5064 13.1271 26.6168 13.2008 26.7098 13.2938C26.8028 13.3868 26.8765 13.4971 26.9268 13.6186C26.9772 13.7401 27.0031 13.8703 27.0031 14.0018C27.0031 14.1333 26.9772 14.2635 26.9268 14.385C26.8765 14.5064 26.8028 14.6168 26.7098 14.7098L21.4158 20.0018L26.7098 25.2938C26.8028 25.3868 26.8765 25.4971 26.9268 25.6186C26.9772 25.7401 27.0031 25.8703 27.0031 26.0018C27.0031 26.1333 26.9772 26.2635 26.9268 26.385C26.8765 26.5064 26.8028 26.6168 26.7098 26.7098C26.6168 26.8028 26.5064 26.8765 26.385 26.9268C26.2635 26.9772 26.1333 27.0031 26.0018 27.0031C25.8703 27.0031 25.7401 26.9772 25.6186 26.9268C25.4971 26.8765 25.3868 26.8028 25.2938 26.7098L20.0018 21.4158L14.7098 26.7098C14.6168 26.8028 14.5064 26.8765 14.385 26.9268C14.2635 26.9772 14.1333 27.0031 14.0018 27.0031C13.8703 27.0031 13.7401 26.9772 13.6186 26.9268C13.4971 26.8765 13.3868 26.8028 13.2938 26.7098C13.2008 26.6168 13.1271 26.5064 13.0767 26.385C13.0264 26.2635 13.0005 26.1333 13.0005 26.0018C13.0005 25.8703 13.0264 25.7401 13.0767 25.6186C13.1271 25.4971 13.2008 25.3868 13.2938 25.2938L18.5878 20.0018L13.2938 14.7098C13.2007 14.6169 13.1268 14.5065 13.0764 14.3851C13.0259 14.2636 13 14.1333 13 14.0018C13 13.8703 13.0259 13.74 13.0764 13.6185C13.1268 13.497 13.2007 13.3867 13.2938 13.2938Z" fill="#9E78CF"/>
</svg>
