<svg xmlns="http://www.w3.org/2000/svg" width="15.71" height="15.71" viewBox="0 0 15.71 15.71">
  <g id="noun-edit-1167408" transform="translate(-205.525 -135.522)">
    <path id="Path_123413" data-name="Path 123413" d="M209.178,151.232h8.4a3.664,3.664,0,0,0,3.654-3.654V145.2a.609.609,0,0,0-1.218,0v2.375a2.443,2.443,0,0,1-2.436,2.436h-8.4a2.443,2.443,0,0,1-2.436-2.436v-8.4a2.443,2.443,0,0,1,2.436-2.436h2.375a.609.609,0,0,0,0-1.218h-2.375a3.664,3.664,0,0,0-3.654,3.654v8.4a3.664,3.664,0,0,0,3.654,3.654Z" fill="#ef7ea8"/>
    <path id="Path_123414" data-name="Path 123414" d="M298.008,138.955l-6.211,6.211a.591.591,0,0,0-.152.274l-.852,3.045a.609.609,0,0,0,.426.761.624.624,0,0,0,.335,0l3.045-.853a1.227,1.227,0,0,0,.274-.152l6.242-6.211a2.168,2.168,0,0,0,0-3.075,2.2,2.2,0,0,0-3.105,0Zm-5.785,8.83.3-1.035.761.761Zm7.977-6.637-5.754,5.754-1.34-1.34,5.754-5.754a.957.957,0,0,1,1.34.091.967.967,0,0,1,0,1.248Z" transform="translate(-80.609 -2.642)" fill="#ef7ea8"/>
  </g>
</svg>
