<svg width="26" height="23" viewBox="0 0 26 23" fill="none" xmlns="http://www.w3.org/2000/svg">
<path d="M12.9992 22C12.5567 22 12.1343 21.8566 11.7773 21.5851C9.35348 19.7463 3.5605 15.1724 2.10722 12.4015C0.206402 8.78024 1.3479 4.12951 4.64668 2.03463C5.71275 1.35854 6.91962 1 8.14661 1C9.98206 1 11.7069 1.76829 12.9992 3.13585C14.2916 1.76829 16.0164 1 17.8519 1C19.0789 1 20.2857 1.35854 21.3518 2.03463C24.6506 4.12951 25.7921 8.78024 23.8963 12.4015C22.443 15.1724 16.65 19.7463 14.2262 21.5851C13.8642 21.8566 13.4418 22 12.9992 22ZM8.14661 2.53659C7.20123 2.53659 6.27093 2.81317 5.44624 3.33561C2.8062 5.01561 1.90105 8.75463 3.43478 11.6741C4.78246 14.2454 10.847 18.9678 12.6724 20.3507C12.8635 20.4941 13.13 20.4941 13.3211 20.3507C15.1465 18.9627 21.211 14.2402 22.5587 11.6741C24.0924 8.75463 23.1872 5.01049 20.5472 3.33561C19.7275 2.81317 18.7972 2.53659 17.8519 2.53659C16.1974 2.53659 14.6486 3.3561 13.6027 4.78L12.9992 5.60976L12.3958 4.78C11.3498 3.3561 9.80606 2.53659 8.14661 2.53659Z" fill="white" stroke="white"/>
</svg>
