<svg width="11" height="14" viewBox="0 0 11 14" fill="none" xmlns="http://www.w3.org/2000/svg">
<path d="M1.27089 14C0.853986 14 0.537944 13.8924 0.322766 13.6772C0.107589 13.4755 0 13.2065 0 12.8703C0 12.5072 0.100864 12.171 0.302594 11.8617C0.517771 11.5389 0.793468 11.2834 1.12968 11.0951C1.4659 10.9068 1.81556 10.8127 2.17867 10.8127C2.34006 10.8127 2.50144 10.8329 2.66282 10.8732C2.83766 10.9001 3.00576 10.9472 3.16715 11.0144V1.9366L10.7118 0V10.268C10.7118 10.8463 10.5841 11.3573 10.3285 11.8012C10.0865 12.2315 9.76369 12.5744 9.36023 12.83C8.97022 13.072 8.53986 13.1931 8.06916 13.1931C7.65226 13.1931 7.33621 13.0922 7.12104 12.8905C6.90586 12.6753 6.79827 12.3996 6.79827 12.0634C6.79827 11.7003 6.89913 11.3641 7.10086 11.0548C7.31604 10.732 7.59174 10.4765 7.92795 10.2882C8.26417 10.0999 8.61383 10.0058 8.97694 10.0058C9.13833 10.0058 9.29971 10.0259 9.46109 10.0663C9.63592 10.0932 9.80403 10.1402 9.96542 10.2075V1.17003L10.3084 1.45245L3.61095 3.30836L3.91354 2.82421V11.0749C3.91354 11.6532 3.78578 12.1643 3.53026 12.6081C3.28818 13.0384 2.96542 13.3746 2.56196 13.6167C2.17195 13.8722 1.74159 14 1.27089 14Z" fill="white"/>
</svg>
