<svg width="40" height="40" viewBox="0 0 40 40" fill="none" xmlns="http://www.w3.org/2000/svg">
<rect width="40" height="40" rx="20" fill="black" fill-opacity="0.6"/>
<g clip-path="url(#clip0_23620_8111)">
<path d="M17.7929 11H13.1885L13.3066 12.2606L14.4615 12.3711C9.72114 15.8315 9.0795 23.2821 13.6967 27.1267C14.2357 27.5762 16.0194 28.7187 16.6508 28.7464C17.2822 28.774 17.0922 27.8298 17.3001 27.4029C10.9094 24.9244 10.1497 16.6602 16.1298 13.2525L16.2555 15.2514H17.7929V11ZM22.3973 24.7511V29H27.0016L26.7527 27.6063L25.4669 27.6264C30.2971 24.0279 30.9002 17.3683 26.3677 13.245C25.8467 12.7704 23.5599 11.0251 22.926 11.5173L22.6976 12.6021C28.7315 15.4322 29.9224 23.0209 24.0578 26.7475L23.9321 24.7486H22.3947L22.3973 24.7511Z" fill="white"/>
<path d="M19.9439 15.8154L15.6265 20.1327C15.236 20.5233 15.236 21.1564 15.6265 21.5469L18.3807 24.3012C18.7712 24.6917 19.4044 24.6917 19.7949 24.3012L24.1123 19.9838C24.5028 19.5933 24.5028 18.9601 24.1123 18.5696L21.3581 15.8154C20.9676 15.4248 20.3344 15.4248 19.9439 15.8154Z" fill="white"/>
</g>
<defs>
<clipPath id="clip0_23620_8111">
<rect width="18.9" height="18" fill="white" transform="translate(10.55 11)"/>
</clipPath>
</defs>
</svg>
