<svg width="26" height="22" viewBox="0 0 26 22" fill="none" xmlns="http://www.w3.org/2000/svg">
<path fill-rule="evenodd" clip-rule="evenodd" d="M24.676 1.01226C24.4983 0.692096 24.1586 0.5 23.7929 0.5L2.21655 0.516008C1.78283 0.516008 1.40659 0.788145 1.25505 1.19902C1.14531 1.49783 1.17144 1.81799 1.31775 2.07946C1.37523 2.17551 1.44839 2.26622 1.53723 2.34626L9.85108 9.66727L11.8786 20.6648C11.957 21.097 12.281 21.4172 12.7095 21.4865C13.1327 21.5559 13.5508 21.3531 13.7702 20.9743L24.6707 2.05278C24.8589 1.72728 24.8589 1.33242 24.676 1.01226ZM3.68493 2.1008H21.2532L10.6767 8.2639L3.68493 2.1008ZM13.1536 18.8826L11.4501 9.64059L22.0423 3.47216L13.1536 18.8826Z" fill="white" stroke="white"/>
</svg>
